<svg width="18" height="16" viewBox="0 0 18 16" fill="none" xmlns="http://www.w3.org/2000/svg">
<path fill-rule="evenodd" clip-rule="evenodd" d="M9.79347 4.5824V6.39253C10.1725 5.81512 10.695 5.34602 11.3098 5.03116C11.9246 4.71629 12.6106 4.56643 13.3007 4.59627C16.986 4.59627 17.7828 6.90027 17.7828 9.8976V16H14.3695V10.5899C14.3695 9.2992 14.1092 7.63947 12.0996 7.63947C10.1508 7.63947 9.818 9.04427 9.818 10.4939V16H6.41534V4.5824H9.79347ZM4.12947 1.71307C4.12905 2.0512 4.02882 2.38169 3.84134 2.6631C3.65387 2.9445 3.38749 3.1643 3.0756 3.29493C2.76385 3.42451 2.42059 3.45841 2.08951 3.39231C1.75843 3.32621 1.4545 3.16309 1.2164 2.92373C0.977861 2.68422 0.81546 2.37953 0.749623 2.04797C0.683786 1.7164 0.717453 1.37278 0.846389 1.0603C0.975325 0.747815 1.19378 0.480434 1.47427 0.291775C1.75476 0.103116 2.08477 0.00160256 2.4228 0C2.64747 -1.57962e-06 2.86992 0.0443537 3.0774 0.130522C3.28488 0.21669 3.47331 0.342974 3.63187 0.502132C3.79043 0.661289 3.91601 0.850186 4.0014 1.05799C4.08679 1.26579 4.13031 1.48841 4.12947 1.71307Z" fill="#222222"/>
<path d="M4.13013 4.59619H0.716797V15.9999H4.13013V4.59619Z" fill="#222222"/>
</svg>
