<svg width="21" height="16" viewBox="0 0 21 16" fill="none" xmlns="http://www.w3.org/2000/svg">
<path d="M18.7188 4L10.7188 9L2.71875 4V2L10.7188 7L18.7188 2M18.7188 0H2.71875C1.60875 0 0.71875 0.89 0.71875 2V14C0.71875 14.5304 0.929464 15.0391 1.30454 15.4142C1.67961 15.7893 2.18832 16 2.71875 16H18.7188C19.2492 16 19.7579 15.7893 20.133 15.4142C20.508 15.0391 20.7188 14.5304 20.7188 14V2C20.7188 1.46957 20.508 0.960859 20.133 0.585786C19.7579 0.210714 19.2492 0 18.7188 0Z" fill="#222222"/>
</svg>
