<svg width="44" height="44" viewBox="0 0 44 44" fill="none" xmlns="http://www.w3.org/2000/svg">
<path fill-rule="evenodd" clip-rule="evenodd" d="M22.616 16.8736V19.5888C23.1846 18.7227 23.9683 18.019 24.8905 17.5467C25.8127 17.0744 26.8417 16.8497 27.8768 16.8944C33.4048 16.8944 34.6 20.3504 34.6 24.8464V34H29.48V25.8848C29.48 23.9488 29.0896 21.4592 26.0752 21.4592C23.152 21.4592 22.6528 23.5664 22.6528 25.7408V34H17.5488V16.8736H22.616ZM14.12 12.5696C14.1194 13.0768 13.969 13.5725 13.6878 13.9946C13.4066 14.4168 13.007 14.7464 12.5392 14.9424C12.0716 15.1368 11.5567 15.1876 11.06 15.0885C10.5634 14.9893 10.1075 14.7446 9.75039 14.3856C9.39257 14.0263 9.14897 13.5693 9.05022 13.0719C8.95146 12.5746 9.00196 12.0592 9.19536 11.5904C9.38877 11.1217 9.71644 10.7207 10.1372 10.4377C10.5579 10.1547 11.0529 10.0024 11.56 10C11.897 10 12.2307 10.0665 12.5419 10.1958C12.8531 10.325 13.1357 10.5145 13.3736 10.7532C13.6114 10.9919 13.7998 11.2753 13.9279 11.587C14.056 11.8987 14.1213 12.2326 14.12 12.5696Z" fill="white"/>
<path d="M14.12 16.8936H9V33.9992H14.12V16.8936Z" fill="white"/>
</svg>
