<svg width="32" height="32" viewBox="0 0 32 32" fill="none" xmlns="http://www.w3.org/2000/svg">
<g id="mdi:basketball">
<path id="Vector" d="M3.1213 19.5068C3.9213 19.2134 4.74797 19.0668 5.62797 19.0668C7.41464 19.0668 8.97464 19.6268 10.308 20.7468L6.1213 24.9334C4.73193 23.3689 3.70728 21.5154 3.1213 19.5068ZM20.748 13.0668C23.3746 15.0268 26.2146 15.5068 29.2546 14.5068C29.2946 14.7868 29.3346 15.2934 29.3346 16.0001C29.3346 17.3734 29.0013 18.9068 28.3746 20.6001C27.748 22.2801 26.9746 23.6401 26.068 24.6668L17.628 16.2534L20.748 13.0668ZM11.6946 22.1868C13.108 24.2268 13.4013 26.4534 12.5613 28.8801C10.668 28.3334 8.97464 27.4801 7.5613 26.3068L11.6946 22.1868ZM16.2546 17.6268L24.668 26.0668C21.7746 28.6001 18.3746 29.6668 14.508 29.2534C14.788 28.3734 14.9346 27.4134 14.9346 26.3734C14.9346 25.5468 14.748 24.5734 14.3746 23.4668C14.0013 22.3601 13.5613 21.4534 13.068 20.7468L16.2546 17.6268ZM11.748 19.3334C10.5327 18.2471 9.04339 17.514 7.4413 17.2134C5.81464 16.9068 4.25464 17.0001 2.74797 17.5068C2.70797 17.2134 2.66797 16.7068 2.66797 16.0001C2.66797 14.6268 3.0013 13.0934 3.62797 11.4001C4.25464 9.7201 5.02797 8.3601 5.93464 7.33344L14.8146 16.2534L11.748 19.3334ZM20.748 10.3068C18.9613 8.10677 18.548 5.70677 19.508 3.1201C20.3346 3.33344 21.2813 3.73344 22.348 4.34677C23.4013 4.94677 24.268 5.54677 24.9346 6.1201L20.748 10.3068ZM28.8813 12.5068C28.0813 12.7868 27.2546 12.9334 26.3746 12.9334C24.9213 12.9334 23.5213 12.5068 22.188 11.6268L26.308 7.5601C27.4813 9.02677 28.3346 10.6668 28.8813 12.5068ZM16.2546 14.8134L7.33464 5.93344C10.228 3.4001 13.628 2.33344 17.508 2.74677C17.2146 3.62677 17.068 4.58677 17.068 5.62677C17.068 6.58677 17.2813 7.66677 17.7213 8.8801C18.1613 10.0801 18.668 11.0401 19.3346 11.7468L16.2546 14.8134Z" fill="white"/>
</g>
</svg>
