<svg width="32" height="32" viewBox="0 0 32 32" fill="none" xmlns="http://www.w3.org/2000/svg">
<g id="solar:music-note-2-bold">
<path id="Vector" d="M18.3346 2.6665C18.3346 2.40129 18.2293 2.14693 18.0417 1.9594C17.8542 1.77186 17.5999 1.6665 17.3346 1.6665C17.0694 1.6665 16.8151 1.77186 16.6275 1.9594C16.44 2.14693 16.3346 2.40129 16.3346 2.6665V19.3812C15.2724 18.3846 13.899 17.7846 12.446 17.6823C10.993 17.58 9.5492 17.9817 8.35778 18.8196C7.16637 19.6576 6.30021 20.8806 5.90525 22.2827C5.51028 23.6847 5.61066 25.18 6.18947 26.5166C6.76827 27.8533 7.79012 28.9496 9.08285 29.6208C10.3756 30.292 11.8602 30.4971 13.2864 30.2015C14.7127 29.906 15.9935 29.1278 16.9131 27.9982C17.8326 26.8685 18.3347 25.4564 18.3346 23.9998V8.32384C19.1777 9.36844 20.2441 10.2109 21.4554 10.7893C22.6667 11.3678 23.9923 11.6675 25.3346 11.6665C25.5999 11.6665 25.8542 11.5611 26.0417 11.3736C26.2293 11.1861 26.3346 10.9317 26.3346 10.6665C26.3346 10.4013 26.2293 10.1469 26.0417 9.9594C25.8542 9.77186 25.5999 9.6665 25.3346 9.6665C23.4781 9.6665 21.6976 8.92901 20.3849 7.61625C19.0721 6.3035 18.3346 4.52302 18.3346 2.6665Z" fill="white"/>
</g>
</svg>
