<svg width="300" height="300" viewBox="0 0 300 300" fill="none" xmlns="http://www.w3.org/2000/svg">
<path d="M159.361 35.0176C183.165 37.37 206.994 39.4895 230.848 41.164C245.711 42.2074 260.683 43.3938 275.595 43.2406C276.494 43.2304 282.737 43.7001 283.211 42.4749C283.638 41.364 279.519 40.6494 278.874 40.4901C265.716 37.2393 252.044 35.7936 238.657 34.0171C191.366 27.7646 143.821 23.07 96.2749 19.5313C80.0473 18.3224 63.7618 17.081 47.4879 16.9156C44.7682 16.887 39.709 16.0008 37.1669 17.3709C35.4297 18.3041 37.304 18.6757 38.5934 19.0862C49.839 22.6698 62.2485 23.5785 73.8338 25.1753C95.7827 28.1995 117.797 30.709 139.821 33.0246C146.333 33.7107 152.846 34.3751 159.361 35.0176Z" fill="#333333"/>
<path d="M35.839 20.352C32.766 19.9211 29.1044 51.7044 28.7106 54.7714C26.9734 68.3995 25.8789 82.1338 25.1956 95.8661C23.7191 125.201 24.3133 154.611 26.9734 183.852C27.6335 191.067 28.4732 198.271 29.5464 205.428C30.442 211.411 31.189 217.712 33.0961 223.45C35.0476 229.317 35.3062 220.708 35.339 218.784C35.4529 212.25 35.1846 205.716 34.9974 199.182C34.1442 169.324 33.4397 139.478 33.9628 109.606C34.2485 93.2278 34.8275 76.8635 35.507 60.4971C35.6402 57.0707 38.5877 20.7359 35.839 20.352Z" fill="#333333"/>
<path d="M286.516 44.6642C283.526 43.7677 277.081 69.8825 276.396 72.5452C273.321 84.5091 271.028 96.6997 269.283 108.958C265.61 134.847 264.549 161.075 266.119 187.202C266.484 193.328 267.094 199.476 267.926 205.559C268.634 210.721 269.221 216.232 270.954 221.147C272.649 225.956 273.166 219.718 273.282 217.719C273.606 212.04 273.512 206.321 273.529 200.632C273.608 174.456 274.423 148.286 276.986 122.239C278.374 108.124 280.25 94.0982 282.262 80.0719C283.267 73.0475 284.51 66.0619 285.543 59.0396C285.763 57.4632 288.355 45.2155 286.516 44.6642Z" fill="#333333"/>
<path d="M267.781 223.396C251.693 218.049 233.902 216.586 217.149 215.578C199.649 214.522 181.964 214.696 164.53 216.738C162.438 216.983 142.912 219.016 143.632 222.02C144.041 223.74 151.692 223.554 153.03 223.639C157.736 223.936 162.455 224.027 167.167 224.125C186.084 224.534 205 224.899 223.899 225.7C234.548 226.149 245.195 226.747 255.848 227.105C260.354 227.256 265.007 227.591 269.503 227.084C275.095 226.453 270.731 224.377 267.781 223.396Z" fill="#333333"/>
<path d="M145.213 223.402C142.649 222.011 135.222 236.154 134.318 237.696C131.981 241.673 129.748 245.72 127.574 249.8C125.914 252.914 124.422 256.688 122.494 259.436C121.758 259.248 120.803 255.181 120.479 254.286C118.651 249.241 116.746 244.222 114.678 239.28C112.976 235.196 111.258 230.935 108.888 227.232C107.965 225.785 106.589 223.53 105.826 226.036C104.861 229.201 106.702 234.702 107.338 237.749C108.382 242.753 109.635 247.707 110.961 252.635C113.877 263.477 117.33 274.151 120.737 284.83C126.358 273.25 132.022 261.687 137.061 249.808C139.416 244.256 141.706 238.647 143.601 232.899C143.981 231.755 146.95 224.343 145.213 223.402Z" fill="#333333"/>
<path d="M107.378 221.374C107.511 219.448 102.701 218.407 101.578 218.074C96.6129 216.597 91.4476 215.789 86.3421 215.103C74.0754 213.457 61.3068 212.43 48.961 213.688C47.5172 213.835 41.8017 213.927 41.1474 215.899C40.5142 217.804 44.4654 218.809 45.5773 219.183C56.3403 222.783 68.2943 223.561 79.4897 224.134C85.9908 224.467 92.5594 224.608 99.0489 223.991C100.404 223.865 107.218 223.695 107.378 221.374Z" fill="#333333"/>
<path d="M1.5366 34.3171C-1.00939 34.4702 0.363014 61.0873 0.420922 63.066C0.903483 79.1975 1.73542 95.4659 3.87799 111.461C4.01697 112.482 4.55937 120.68 5.95107 120.995C7.2482 121.287 7.24048 115.777 7.29066 114.889C8.12453 99.8642 7.17871 84.5964 6.19621 69.6084C6.036 67.1519 4.42039 34.1455 1.5366 34.3171Z" fill="#333333"/>
<path d="M4.70989 149.315C4.83343 151.153 5.6036 167.205 8.7055 166.974C11.8074 166.744 10.4427 150.741 10.3288 148.897C10.2111 147.112 9.43127 131.007 6.33323 131.238C3.23519 131.469 4.58829 147.469 4.70989 149.315Z" fill="#333333"/>
<path d="M84.4868 242.313C84.3169 238.939 63.5204 240.522 61.4165 240.642C59.6619 240.742 38.3288 241.731 38.6396 244.93C38.8037 246.58 44.5751 246.586 45.4591 246.652C50.8638 247.06 56.3091 246.909 61.7099 246.601C63.7212 246.476 84.6586 245.68 84.4868 242.313Z" fill="#333333"/>
<path d="M160.311 237.889C158.143 236.499 147.203 255.466 146.292 256.955C139.366 268.274 132.635 279.942 127.165 292.136C126.767 293.02 123.657 298.82 124.582 299.83C125.507 300.841 128.01 297.023 128.489 296.398C135.976 286.651 142.169 275.582 148.15 264.77C149.162 262.94 162.766 239.462 160.311 237.889Z" fill="#333333"/>
<path d="M296.897 132.16C297.532 124.376 298.321 116.617 299.126 108.851C299.3 107.175 299.462 105.492 299.609 103.814C299.705 102.697 300.304 100.073 299.802 99.0886C298.75 97.0344 297.993 100.904 297.559 102.225C292.88 116.443 291.235 132.171 290.417 147.118C289.564 162.526 290.143 178.094 292.396 193.35C292.898 196.969 293.575 200.558 294.424 204.103C294.669 205.079 295.634 210.108 296.677 208.951C297.914 207.58 296.766 201.532 296.686 199.705C296.52 195.778 296.279 191.855 296.107 187.926C295.3 169.338 295.564 150.715 296.897 132.16Z" fill="#333333"/>
<path d="M283.505 241.543C283.275 237.09 241.039 239.528 241.275 243.993C241.51 248.459 283.736 245.997 283.505 241.543Z" fill="#333333"/>
<path d="M43.4442 0.598508C43.2512 3.32862 115.056 9.24217 119.415 9.64035C162.637 13.5977 205.936 17.1834 249.272 19.4071C255.348 19.7195 261.433 20.0197 267.515 20.13C268.932 20.1565 274.776 21.106 275.929 19.9156C276.682 19.1355 273.788 18.8844 273.095 18.7516C268.625 17.8858 264.087 17.359 259.583 16.7954C218.836 11.7191 177.838 8.49276 136.924 5.34404C116.637 3.78398 96.3426 2.33009 76.0306 1.20497C69.3539 0.835371 62.6753 0.492318 55.9947 0.284037C52.3967 0.171729 48.4957 -0.275444 44.9112 0.251384C44.7279 0.275887 43.4635 0.265667 43.4442 0.598508Z" fill="#333333"/>
</svg>
